<mxfile host="65bd71144e">
    <diagram name="Page-1" id="2YBvvXClWsGukQMizWep">
        <mxGraphModel dx="418" dy="326" grid="1" gridSize="10" guides="1" tooltips="1" connect="1" arrows="1" fold="1" page="1" pageScale="1" pageWidth="850" pageHeight="1100" background="none" math="0" shadow="0">
            <root>
                <mxCell id="0"/>
                <mxCell id="1" parent="0"/>
                <mxCell id="gIgCATBuBZRof1xgLh5w-1" value="Utilisateur" style="shape=umlLifeline;perimeter=lifelinePerimeter;whiteSpace=wrap;html=1;container=0;dropTarget=0;collapsible=0;recursiveResize=0;outlineConnect=0;portConstraint=eastwest;newEdgeStyle={&quot;edgeStyle&quot;:&quot;elbowEdgeStyle&quot;,&quot;elbow&quot;:&quot;vertical&quot;,&quot;curved&quot;:0,&quot;rounded&quot;:0};" parent="1" vertex="1">
                    <mxGeometry x="50" y="40" width="100" height="320" as="geometry"/>
                </mxCell>
                <mxCell id="gIgCATBuBZRof1xgLh5w-2" value="Authorisation Service" style="shape=umlLifeline;perimeter=lifelinePerimeter;whiteSpace=wrap;html=1;container=0;dropTarget=0;collapsible=0;recursiveResize=0;outlineConnect=0;portConstraint=eastwest;newEdgeStyle={&quot;edgeStyle&quot;:&quot;elbowEdgeStyle&quot;,&quot;elbow&quot;:&quot;vertical&quot;,&quot;curved&quot;:0,&quot;rounded&quot;:0};" parent="1" vertex="1">
                    <mxGeometry x="490" y="40" width="100" height="320" as="geometry"/>
                </mxCell>
                <mxCell id="gIgCATBuBZRof1xgLh5w-3" value="" style="html=1;points=[];perimeter=orthogonalPerimeter;outlineConnect=0;targetShapes=umlLifeline;portConstraint=eastwest;newEdgeStyle={&quot;edgeStyle&quot;:&quot;elbowEdgeStyle&quot;,&quot;elbow&quot;:&quot;vertical&quot;,&quot;curved&quot;:0,&quot;rounded&quot;:0};" parent="gIgCATBuBZRof1xgLh5w-2" vertex="1">
                    <mxGeometry x="45" y="100" width="10" height="60" as="geometry"/>
                </mxCell>
                <mxCell id="gIgCATBuBZRof1xgLh5w-4" value="Backend" style="shape=umlLifeline;perimeter=lifelinePerimeter;whiteSpace=wrap;html=1;container=0;dropTarget=0;collapsible=0;recursiveResize=0;outlineConnect=0;portConstraint=eastwest;newEdgeStyle={&quot;edgeStyle&quot;:&quot;elbowEdgeStyle&quot;,&quot;elbow&quot;:&quot;vertical&quot;,&quot;curved&quot;:0,&quot;rounded&quot;:0};" parent="1" vertex="1">
                    <mxGeometry x="250" y="40" width="120" height="320" as="geometry"/>
                </mxCell>
                <mxCell id="gIgCATBuBZRof1xgLh5w-5" value="" style="html=1;points=[];perimeter=orthogonalPerimeter;outlineConnect=0;targetShapes=umlLifeline;portConstraint=eastwest;newEdgeStyle={&quot;edgeStyle&quot;:&quot;elbowEdgeStyle&quot;,&quot;elbow&quot;:&quot;vertical&quot;,&quot;curved&quot;:0,&quot;rounded&quot;:0};" parent="gIgCATBuBZRof1xgLh5w-4" vertex="1">
                    <mxGeometry x="60" y="70" width="10" height="110" as="geometry"/>
                </mxCell>
                <mxCell id="gIgCATBuBZRof1xgLh5w-6" value="" style="endArrow=classic;html=1;rounded=0;" parent="1" target="gIgCATBuBZRof1xgLh5w-4" edge="1">
                    <mxGeometry width="50" height="50" relative="1" as="geometry">
                        <mxPoint x="95" y="110" as="sourcePoint"/>
                        <mxPoint x="450" y="110" as="targetPoint"/>
                    </mxGeometry>
                </mxCell>
                <mxCell id="gIgCATBuBZRof1xgLh5w-7" value="Créer un channel" style="edgeLabel;html=1;align=center;verticalAlign=middle;resizable=0;points=[];" parent="gIgCATBuBZRof1xgLh5w-6" vertex="1" connectable="0">
                    <mxGeometry x="-0.0275" relative="1" as="geometry">
                        <mxPoint x="3" y="-10" as="offset"/>
                    </mxGeometry>
                </mxCell>
                <mxCell id="gIgCATBuBZRof1xgLh5w-10" value="" style="endArrow=classic;html=1;rounded=0;" parent="1" edge="1">
                    <mxGeometry width="50" height="50" relative="1" as="geometry">
                        <mxPoint x="324.5" y="140" as="sourcePoint"/>
                        <mxPoint x="539.5" y="140" as="targetPoint"/>
                    </mxGeometry>
                </mxCell>
                <mxCell id="gIgCATBuBZRof1xgLh5w-11" value="Verifie le droit de création" style="edgeLabel;html=1;align=center;verticalAlign=middle;resizable=0;points=[];" parent="gIgCATBuBZRof1xgLh5w-10" vertex="1" connectable="0">
                    <mxGeometry x="-0.0275" relative="1" as="geometry">
                        <mxPoint x="3" y="-10" as="offset"/>
                    </mxGeometry>
                </mxCell>
                <mxCell id="gIgCATBuBZRof1xgLh5w-14" value="" style="endArrow=classic;html=1;rounded=0;exitX=0.501;exitY=0.278;exitDx=0;exitDy=0;exitPerimeter=0;" parent="1" edge="1" target="gIgCATBuBZRof1xgLh5w-13">
                    <mxGeometry width="50" height="50" relative="1" as="geometry">
                        <mxPoint x="310.1200000000001" y="220.15999999999997" as="sourcePoint"/>
                        <mxPoint x="935.0000000000002" y="220" as="targetPoint"/>
                        <Array as="points">
                            <mxPoint x="670" y="220"/>
                        </Array>
                    </mxGeometry>
                </mxCell>
                <mxCell id="gIgCATBuBZRof1xgLh5w-15" value="Création du channel" style="edgeLabel;html=1;align=center;verticalAlign=middle;resizable=0;points=[];" parent="gIgCATBuBZRof1xgLh5w-14" vertex="1" connectable="0">
                    <mxGeometry x="-0.109" y="4" relative="1" as="geometry">
                        <mxPoint x="14" y="-6" as="offset"/>
                    </mxGeometry>
                </mxCell>
                <mxCell id="gIgCATBuBZRof1xgLh5w-16" value="" style="endArrow=classic;html=1;rounded=0;dashed=1;" parent="1" source="gIgCATBuBZRof1xgLh5w-3" edge="1">
                    <mxGeometry width="50" height="50" relative="1" as="geometry">
                        <mxPoint x="739.5000000000005" y="260" as="sourcePoint"/>
                        <mxPoint x="320" y="200" as="targetPoint"/>
                        <Array as="points">
                            <mxPoint x="440" y="200"/>
                        </Array>
                    </mxGeometry>
                </mxCell>
                <mxCell id="gIgCATBuBZRof1xgLh5w-17" value="Utilisateur autorisé" style="edgeLabel;html=1;align=center;verticalAlign=middle;resizable=0;points=[];" parent="gIgCATBuBZRof1xgLh5w-16" vertex="1" connectable="0">
                    <mxGeometry x="-0.0817" relative="1" as="geometry">
                        <mxPoint x="-2" y="-10" as="offset"/>
                    </mxGeometry>
                </mxCell>
                <mxCell id="gIgCATBuBZRof1xgLh5w-18" value="Base de données" style="shape=umlLifeline;perimeter=lifelinePerimeter;whiteSpace=wrap;html=1;container=0;dropTarget=0;collapsible=0;recursiveResize=0;outlineConnect=0;portConstraint=eastwest;newEdgeStyle={&quot;edgeStyle&quot;:&quot;elbowEdgeStyle&quot;,&quot;elbow&quot;:&quot;vertical&quot;,&quot;curved&quot;:0,&quot;rounded&quot;:0};" parent="1" vertex="1">
                    <mxGeometry x="690" y="40" width="100" height="320" as="geometry"/>
                </mxCell>
                <mxCell id="gIgCATBuBZRof1xgLh5w-13" value="" style="html=1;points=[];perimeter=orthogonalPerimeter;outlineConnect=0;targetShapes=umlLifeline;portConstraint=eastwest;newEdgeStyle={&quot;edgeStyle&quot;:&quot;elbowEdgeStyle&quot;,&quot;elbow&quot;:&quot;vertical&quot;,&quot;curved&quot;:0,&quot;rounded&quot;:0};" parent="gIgCATBuBZRof1xgLh5w-18" vertex="1">
                    <mxGeometry x="45" y="180" width="10" height="60" as="geometry"/>
                </mxCell>
                <mxCell id="gIgCATBuBZRof1xgLh5w-91" value="" style="endArrow=classic;html=1;rounded=0;dashed=1;" parent="1" target="gIgCATBuBZRof1xgLh5w-4" edge="1">
                    <mxGeometry width="50" height="50" relative="1" as="geometry">
                        <mxPoint x="740" y="280" as="sourcePoint"/>
                        <mxPoint x="90.00000000000004" y="280" as="targetPoint"/>
                    </mxGeometry>
                </mxCell>
                <mxCell id="gIgCATBuBZRof1xgLh5w-93" value="Confirmation création" style="edgeLabel;html=1;align=center;verticalAlign=middle;resizable=0;points=[];" parent="gIgCATBuBZRof1xgLh5w-91" vertex="1" connectable="0">
                    <mxGeometry x="-0.0223" y="1" relative="1" as="geometry">
                        <mxPoint x="-23" y="-11" as="offset"/>
                    </mxGeometry>
                </mxCell>
            </root>
        </mxGraphModel>
    </diagram>
</mxfile>